<?xml version="1.0" encoding="utf-8"?>
<!-- Generator: Adobe Illustrator 25.0.1, SVG Export Plug-In . SVG Version: 6.00 Build 0)  -->
<svg version="1.1" id="Layer_1" xmlns="http://www.w3.org/2000/svg" xmlns:xlink="http://www.w3.org/1999/xlink" x="0px" y="0px"
	 viewBox="0 0 1024 1024" style="enable-background:new 0 0 1024 1024;" xml:space="preserve">
<style type="text/css">
	.st0{fill:#FFFFFF;}
	.st1{fill-rule:evenodd;clip-rule:evenodd;fill:#FFFFFF;}
</style>
<g id="Layer_4">
	<path class="st0" d="M694.6,394.7c0.3,3.8,0.7,6,0.7,8.3c0,34.8,0,69.6,0.1,104.4c0,9.3-2.9,16.6-13.8,19.3
		c-14.2,3.5-25.7-4-25.9-17.4c-0.3-19.8,0-39.5-0.1-59.3c-0.1-15.5-5.4-20.4-22.9-20.5c-58.5-0.1-116.9,0-175.4-0.1
		c-20.2,0-23.2-2.3-26.7-19.5c-1.9-9.2-8.3-13.4-21.5-13.4c-53.2-0.1-106.4-0.1-159.6,0c-6,0-12-0.1-18,0
		c-14.3,0.3-20.6,5.6-20.7,18.5c-0.2,50.9-0.4,101.7,0.3,152.6c0.1,5.9,4.3,12.8,8.9,17.5c27.4,27.5,55.3,54.6,83.4,81.5
		c6.6,6.4,9.3,13,8.9,21.7c-3.9,75.2-7.6,150.4-11.1,225.7c-0.3,6.7-0.9,13.4-0.5,20.1c0.5,8.8,5.9,14.2,16.1,15
		c3.4,0.3,6.7,0.2,10.1,0.2h395.7c23.1,0,27.7-4.3,26.6-24.9c-4.1-80.9-8.2-161.7-12.2-242.7c-0.5-9.8,2.1-18.1,9.1-26
		c21.5-24.4,42.8-49,63.5-74.1c4.5-5.6,7-12.2,7.3-19.1c0.5-85.4,0.3-170.7,0.3-256c0-16.2-5.2-21-23.4-21
		c-100.1-0.1-200.1-0.1-300.2,0c-18.1,0-23.1,4.6-23.2,21.2c-0.1,21.8-0.1,43.5,0,65.3c0,18,5.2,22.7,25.1,22.7h184.4L694.6,394.7
		L694.6,394.7z"/>
	<path class="st1" d="M380.1,957.8l-34.1,0.2l-17,0.1h-8.8c-0.8,0-1.6,0-2.5-0.1c-0.8-0.1-1.7-0.1-2.7-0.2l-1.4-0.2l-1.5-0.2
		c-1-0.2-2-0.4-3-0.7c-4.5-1.2-8.5-3.4-11.5-6.5c-1.5-1.5-2.8-3.3-3.9-5.2c-0.9-1.7-1.6-3.6-2-5.5c-0.2-0.9-0.4-1.8-0.5-2.7
		l-0.1-1.3l-0.1-0.6v-0.5c-0.1-1.4-0.1-2.8-0.1-4.2c0-2.8,0.1-5.4,0.2-8l0.7-15.2l0.7-15.2c1.9-40.5,3.7-80.7,5.6-120.8
		c1-20,1.9-40,2.8-59.8c0.2-5,0.5-9.9,0.7-14.9l0.4-7.4l0.1-1.6v-1.4c0-0.9-0.1-1.7-0.3-2.6c-0.2-1.6-0.8-3.1-1.5-4.5
		c-0.8-1.5-1.8-2.9-3-4.2c-0.3-0.3-0.7-0.7-1-1l-0.6-0.6l-0.7-0.7l-2.9-2.7l-5.6-5.4c-15-14.4-29.8-28.8-44.5-43.2
		c-7.3-7.2-14.6-14.4-21.8-21.6l-5.4-5.4l-2.8-2.8c-1.1-1.1-2.2-2.3-3.1-3.6c-1.9-2.5-3.6-5.1-5-7.9c-1.5-3.1-2.5-6.4-2.9-9.8
		c-0.2-2.2-0.1-3-0.1-4.3V415.4c0-2.9,0.3-5.8,1-8.7c0.8-3.5,2.5-6.8,4.9-9.7c0.7-0.8,1.4-1.5,2.2-2.2s1.6-1.3,2.5-1.9
		c0.9-0.6,1.8-1.1,2.7-1.5c0.9-0.5,1.8-0.9,2.7-1.2c3.2-1.2,6.7-2,10.2-2.2c1.6-0.2,3.1-0.2,4.6-0.3h11.4l29.7,0.1l114.3,0.5
		l13.8,0.1h8.6l2,0c0.7,0,1.4,0,2.1,0.1s1.4,0.1,2.1,0.2c3.1,0.3,6.1,0.9,9,1.9c6.8,2.3,12.1,7.3,14.3,13.5c0.3,0.7,0.5,1.4,0.7,2
		s0.3,1.3,0.5,2s0.2,1.1,0.4,1.6l0.3,1.4c0.2,0.9,0.4,1.8,0.6,2.7c0.2,0.9,0.5,1.6,0.7,2.4c0.4,1.2,0.9,2.3,1.5,3.4
		c0.2,0.4,0.6,0.7,1.1,0.9c1.1,0.4,2.4,0.7,3.6,0.8c0.8,0.1,1.7,0.2,2.6,0.2c0.9,0.1,1.9,0.1,2.9,0.1c2,0.1,4,0.1,6.2,0.1l12.9,0.1
		l98.4,0.7l45.7,0.4l11,0.1l5.5,0l3,0.1c1,0,2,0.1,3.1,0.2s2.1,0.2,3.2,0.4s2.2,0.4,3.3,0.6c0.6,0.1,1.2,0.3,1.7,0.5
		c0.6,0.2,1.2,0.4,1.7,0.6c1.2,0.4,2.4,1,3.5,1.6c1.2,0.7,2.3,1.4,3.3,2.3c0.5,0.4,1,0.9,1.4,1.4c0.5,0.5,0.9,1,1.2,1.5
		c0.4,0.5,0.7,1,1,1.5s0.5,1,0.8,1.5c0.5,1,0.9,2,1.2,3c1,3.5,1.5,7.2,1.4,10.8v4.7c0,1.5,0,3-0.1,4.5c-0.1,6-0.1,11.9-0.2,17.7
		c-0.1,11.6-0.3,22.8-0.4,33.5c0,4.2,1.6,7.9,4.5,10.1c2.8,2.2,6.9,3.1,11.2,2.6c2.1-0.2,4.1-0.8,6-1.6c1.6-0.7,3-1.7,3.9-3
		c1-1.4,1.8-3,2.1-4.7c0.4-1.9,0.6-3.9,0.6-5.9c0.7-35.8,1.5-63.9,2.4-83c0.4-9.6,0.9-17,1.3-21.8c0.1-2.4,0-4.3,0.2-5.6
		s0.3-1.9,0.5-2c0.2,0,0.5,0.6,0.9,1.8c0.5,1.9,0.9,3.8,1.2,5.7c0.5,5,0.9,12.3,1.4,21.9c0.9,19.2,1.7,47.2,2.5,83
		c0.1,2.6-0.1,5.1-0.5,7.6c-0.5,2.9-1.7,5.7-3.4,8.2c-1,1.4-2.1,2.6-3.4,3.7c-1.3,1.1-2.8,2-4.3,2.8c-3,1.5-6.2,2.4-9.5,2.9
		c-3.5,0.6-7,0.5-10.5-0.1c-3.7-0.7-7.2-2.2-10.2-4.4c-3-2.2-5.3-5.1-6.8-8.2c-1.5-3-2.3-6.4-2.4-9.7c-0.2-10.8-0.4-22-0.6-33.7
		c-0.1-5.8-0.2-11.8-0.3-17.8c0-1.5,0-3-0.1-4.5v-2.3c0-0.8,0-1.5-0.1-2.2c0-2.5-0.4-5-1.1-7.5c-0.2-0.5-0.3-0.9-0.6-1.4
		c-0.1-0.2-0.2-0.4-0.3-0.6c-0.1-0.1-0.2-0.3-0.4-0.5c-0.1-0.1-0.2-0.3-0.4-0.4c-0.1-0.1-0.2-0.3-0.4-0.4c-0.3-0.2-0.6-0.4-1-0.6
		c-0.4-0.2-0.8-0.4-1.2-0.5c-0.2-0.1-0.5-0.2-0.8-0.2c-0.3-0.1-0.5-0.2-0.8-0.2c-0.7-0.1-1.2-0.2-1.9-0.3s-1.4-0.2-2.2-0.2
		s-1.5-0.1-2.3-0.1h-2.4l-5.4,0l-11,0.1l-45.6,0.4l-98.3,0.6l-12.9,0.1h-6.7c-1.2,0-2.3,0-3.6-0.1s-2.5-0.1-3.9-0.3
		c-3.1-0.3-6.1-1-9-2.2c-0.9-0.3-1.7-0.8-2.5-1.2c-0.9-0.5-1.6-1-2.4-1.6s-1.4-1.2-2.1-1.9c-0.6-0.7-1.2-1.4-1.7-2
		c-1.6-2.3-2.8-4.9-3.7-7.5c-0.3-1.1-0.7-2.2-1-3.3c-0.3-1.1-0.6-2.1-0.8-3.2l-0.3-1.5c-0.1-0.5-0.2-1.1-0.3-1.4
		c-0.1-0.2-0.1-0.7-0.2-0.9s-0.2-0.6-0.3-0.9c-0.3-0.8-0.8-1.5-1.4-2.2c-0.6-0.5-1.4-1-2.3-1.2c-1.4-0.5-2.8-0.7-4.2-0.9
		c-0.4,0-0.9,0-1.3-0.1c-0.4,0-0.9,0-1.4,0h-10l-13.8,0.1l-114.3,0.4l-29.5,0.1h-11.1c-1,0.1-2,0.1-2.9,0.2c-1.5,0.1-3,0.4-4.4,0.9
		c-0.7,0.2-1.4,0.6-1.8,1.2c-0.6,0.8-1,1.7-1.1,2.6c-0.3,1.6-0.5,3.2-0.4,4.8c0,4.5,0,9,0.1,13.6c0,9.1,0.1,18.2,0.1,27.4
		c0.1,36.5,0.3,73.7,0.4,111.7c0.1,0.6,0.2,1.2,0.4,1.8c0.2,0.7,0.5,1.5,0.9,2.2c0.8,1.6,1.8,3.1,2.9,4.6c0.6,0.7,1.2,1.4,1.8,2.1
		l2.6,2.6l5.4,5.4c7.2,7.2,14.4,14.3,21.7,21.5c14.7,14.4,29.4,28.8,44.3,43l5.6,5.4l2.8,2.7l0.7,0.7l0.8,0.8
		c0.6,0.6,1.1,1.1,1.7,1.7c2.3,2.5,4.3,5.2,5.9,8.2c0.8,1.5,1.5,3.1,2,4.7c0.5,1.6,0.9,3.2,1.2,4.9c0.3,1.6,0.4,3.2,0.5,4.8
		c0,0.8,0,1.6,0,2.3l-0.1,2.1l-0.4,7.4c-0.2,5-0.5,9.9-0.8,14.9c-1,19.9-2,39.9-3,60c-2.1,40-4.2,80.3-6.4,120.8l-0.8,15.2
		c-0.3,5.1-0.6,10.1-0.9,15.2c-0.1,2.5-0.2,4.8-0.2,7.2c0,1.2,0,2.3,0.1,3.4v0.7l0,0.6c0.1,0.4,0.1,0.8,0.2,1.1
		c0.2,1.1,0.7,2.1,1.4,2.9c0.3,0.3,0.6,0.6,1.1,0.8c0.5,0.3,1.1,0.5,1.7,0.7c0.4,0.1,0.7,0.2,1.1,0.3l0.6,0.1l0.7,0.1
		c0.4,0.1,1,0.1,1.6,0.1c0.6,0,1.2,0.1,1.8,0.1h8.3l17.1,0.1l34.1,0.2l261,1.3l59.6,0.3l14.6,0.1h7.3c2.3,0,4.6,0,6.7-0.1
		c2-0.1,4-0.3,6-0.6c1.4-0.2,2.7-0.7,4-1.3c0.8-0.5,1.5-1.3,1.8-2.1c0.6-1.4,1-2.9,1.1-4.4c0.2-1.9,0.3-3.7,0.3-5.6
		c0-2-0.1-4-0.2-6.1c-0.2-4.2-0.4-8.4-0.5-12.5c-0.3-8.3-0.7-16.6-1.1-24.8l-2.1-48.6c-1.4-32-2.7-63.2-4.1-93.8
		c-0.6-15.3-1.3-30.5-1.9-45.5c-0.2-3.8-0.3-7.5-0.5-11.2l-0.1-2.8l-0.1-1.4v-1.5c0-2.1,0.1-4.1,0.4-6.2c0.6-4.2,1.9-8.3,3.8-12.2
		c1-1.9,2.1-3.7,3.4-5.5c0.7-0.9,1.3-1.7,2-2.5l1-1.2l1-1.1c20.7-23.2,40.9-46.1,60.3-69.4l1.8-2.2c0.3-0.3,0.6-0.8,0.9-1.1
		s0.5-0.6,0.7-1c1-1.3,1.8-2.8,2.6-4.2c1.5-2.9,2.5-6,2.9-9.2l0.1-1.2v-9.3l0.1-10.9l0.3-43.4c0.4-57.9,0.9-116,1.3-176.1
		c0-3.8,0-7.5,0.1-11.3v-8.4c0-0.9-0.1-1.8-0.2-2.7c0-0.9-0.2-1.8-0.3-2.6l-0.3-1.3l-0.1-0.6l-0.2-0.6c-0.4-1.5-1.2-2.9-2.3-4.2
		c-1.1-1.2-2.5-2.1-4.1-2.6c-0.4-0.2-0.8-0.3-1.3-0.4c-0.5-0.1-0.9-0.3-1.3-0.4c-1-0.2-1.9-0.4-2.9-0.5c-4.2-0.4-8.3-0.6-12.5-0.5
		l-12.9-0.1l-26-0.1l-107.1-0.4l-113.2-0.5l-29.4-0.1c-5,0-9.9-0.2-14.7,0.4c-2.3,0.3-4.6,0.9-6.7,1.8c-2,1-3.7,2.5-4.7,4.3
		c-2.1,3.8-2.4,8.3-2.5,12.8c-0.1,4.4-0.1,9.1-0.1,13.6l-0.1,27.6c0,4.6,0,9.3-0.1,14v10.6l0.1,3.5c0.1,2.3,0.4,4.7,0.9,7
		c0.4,2.3,1.4,4.4,2.9,6.3c1.5,1.8,3.7,3.2,6.1,3.9c2.5,0.7,5.1,1.2,7.7,1.4c2.6,0.2,5.3,0.3,8,0.3h8.1l16.4,0l33.3,0.1l139.8,0.4
		L554.9,395l-33.3,0.1l-16.4,0H497c-2.7,0-5.4,0-8.2-0.2c-2.7-0.2-5.5-0.7-8.1-1.4c-2.7-0.8-5-2.3-6.8-4.3c-1.6-2-2.7-4.4-3.2-6.8
		c-0.5-2.4-0.9-4.8-1-7.2l-0.1-3.6v-24.6c0-9.3-0.1-18.5-0.1-27.6v-13.6c0-1.1,0-2.3,0.1-3.4c0-0.6,0.1-1.1,0.1-1.7l0.2-1.7
		c0.3-2.4,1.1-4.7,2.2-6.8c1.2-2.2,3.2-4,5.6-5.2c2.4-1.1,4.9-1.8,7.5-2.1l1.9-0.2c0.6-0.1,1.3-0.1,1.9-0.1c1.3-0.1,2.5-0.1,3.8-0.1
		c2.5,0,5,0,7.4,0l29.4-0.1l113-0.4l107.2-0.5l26-0.1l12.9-0.1c4.4-0.1,8.8,0,13.2,0.4c1.1,0.1,2.3,0.3,3.4,0.5
		c0.6,0.1,1.1,0.3,1.7,0.4c0.6,0.1,1.2,0.3,1.7,0.5c2.4,0.8,4.5,2.2,6.2,3.9c1.6,1.7,2.8,3.7,3.4,5.9l0.3,0.8l0.2,0.8l0.4,1.5
		c0.2,1,0.3,2,0.4,3s0.2,2,0.2,3l0.1,2.9v5.7l0.1,11.3c0.3,60,0.6,118.1,0.9,176.1l0.2,43.5l0.1,10.9v9.7l-0.1,1.5
		c-0.5,4.1-1.6,8-3.4,11.7c-0.9,1.9-2,3.7-3.2,5.4c-0.3,0.4-0.6,0.9-1,1.3s-0.6,0.8-1,1.1l-1.8,2.2c-19.2,23.6-39.2,46.8-59.5,70.3
		l-1,1.1l-0.8,1c-0.6,0.7-1.1,1.3-1.6,2c-1,1.4-1.8,2.8-2.6,4.3c-1.5,3-2.4,6.1-2.8,9.3c-0.2,1.7-0.3,3.3-0.2,5l0.1,1.3l0.1,1.4
		l0.2,2.8c0.2,3.7,0.4,7.5,0.6,11.2c0.9,15,1.7,30.2,2.6,45.4c1.8,30.6,3.5,61.7,5.4,93.7c0.9,16,1.8,32.2,2.8,48.6
		c0.5,8.2,1,16.5,1.4,24.8c0.2,4.2,0.5,8.3,0.7,12.5c0.1,2.1,0.3,4.3,0.3,6.5c0.1,2.3,0,4.7-0.3,7c-0.2,2.7-0.9,5.4-2,8
		c-0.7,1.5-1.5,3-2.6,4.3c-1.2,1.4-2.6,2.6-4.1,3.6c-2.8,1.7-5.9,2.9-9.2,3.5c-2.7,0.5-5.5,0.9-8.3,1c-2.6,0.2-5.2,0.2-7.7,0.2h-7.3
		l-14.6,0.1l-59.6,0.3L380.1,957.8L380.1,957.8z"/>
	<path class="st0" d="M332.5,232.9c0-35.4,0.2-70.9-0.1-106.3c-0.1-15.1-5.5-19.6-22.4-19.8c-25.5-0.1-50.9-0.1-76.4,0
		c-16.4,0.1-22.4,5.4-22.4,20.1c-0.1,71.6-0.1,143.1,0,214.6c0,14.3,6.4,19.8,22.8,19.9c25.8,0.2,51.7,0.2,77.5,0
		c16.3-0.1,22.1-5.5,22.2-20.3c0.1-36.1,0-72.2,0-108.3L332.5,232.9L332.5,232.9z"/>
	<path class="st1" d="M201.9,199.7c-0.5-19.5-0.8-39.1-1-58.4c0-4.8-0.1-9.6-0.1-14.4c-0.1-2.9,0.2-5.8,0.7-8.7
		c0.7-3.6,2.1-7,4.3-10.1c0.3-0.4,0.6-0.9,1-1.3l1.1-1.2c0.8-0.8,1.6-1.5,2.6-2.2c0.9-0.7,1.8-1.3,2.8-1.8c0.9-0.5,1.9-1,2.9-1.4
		c3.5-1.3,7.1-2.2,10.8-2.5c1.6-0.1,3.2-0.3,4.7-0.3h11.9c20.6,0.1,40.5,0.2,59.4,0.4l7,0.1c2.7,0,5.4,0.2,8.1,0.6
		c3.2,0.4,6.3,1.1,9.2,2.3c0.9,0.3,1.7,0.7,2.5,1.1l1.2,0.7c0.4,0.2,0.8,0.5,1.2,0.8c0.8,0.6,1.6,1.2,2.3,1.8c0.7,0.7,1.3,1.3,1.9,2
		c2,2.5,3.4,5.4,4.1,8.4c0.1,0.7,0.3,1.3,0.4,1.9l0.3,1.8c0.2,1.2,0.2,2.3,0.3,3.4s0,2.2,0,3.3l-0.1,2.9c-0.1,1.9-0.1,3.7-0.2,5.6
		c-1.8,58.9-5.1,98.2-8.8,98.2s-7-39.3-9-98.1c-0.1-1.8-0.1-3.7-0.2-5.6c0-0.9-0.1-1.9-0.1-2.8s-0.1-1.7-0.2-2.4
		c-0.1-0.8-0.1-1.6-0.3-2.3l-0.2-1.1l-0.3-0.9c-0.2-0.8-0.6-1.6-1.2-2.3c-0.4-0.4-1-0.6-1.5-0.8c-1.3-0.4-2.6-0.7-4-0.8
		c-1.9-0.2-3.8-0.2-5.7-0.2l-7,0.1c-18.8,0.2-38.7,0.4-59.2,0.5h-11.3c-1.1,0-2.1,0.1-3.1,0.2c-1.5,0.1-3,0.4-4.4,0.9
		c-0.6,0.2-1.2,0.6-1.6,1.1c-0.6,0.9-1,2-1.2,3.1c-0.3,1.8-0.5,3.6-0.5,5.4l-0.1,14.4c-0.2,19.2-0.5,38.8-1,58.3
		c-1,40.2-1.9,74-2.8,104.7c-0.2,7.7-0.4,15.2-0.6,22.5c-0.1,3.7-0.2,7.3-0.3,10.9c-0.2,3.3-0.2,6.5,0.3,9.8
		c0.2,1.3,0.7,2.6,1.3,3.8c0.5,1.1,1.3,2,2.3,2.7c1.9,1.5,5,2.4,8.4,2.9c0.9,0.1,1.7,0.2,2.6,0.3s1.8,0.1,2.7,0.1l5.8,0.1l11.6,0.3
		l47.2,1l12.2,0.2c3.8,0.2,7.7-0.3,11.3-1.3c1.7-0.5,3.2-1.4,4.5-2.5c1.3-1.2,2.2-2.6,2.9-4.1l0.5-1.2l0.4-1.3
		c0.3-0.9,0.4-1.8,0.6-2.7s0.2-1.8,0.3-2.8s0.1-1.9,0.1-2.9c0.7-31.4,1.3-66.1,1.9-107.6h-1.1h1.2c0.5,41.4,1.1,76.2,1.8,107.6v3
		c0,1-0.1,2-0.2,3s-0.2,2-0.5,3l-0.4,1.5l-0.5,1.5c-1.4,4.2-5,7.6-9.6,9.2c-4.2,1.4-8.6,2.1-13.1,2.1l-12.2,0.2l-47.3,1l-11.7,0.3
		l-5.9,0.1h-3.1c-1,0-2.1-0.1-3.2-0.2s-2.2-0.2-3.3-0.4c-1.1-0.2-2.3-0.4-3.4-0.8c-2.4-0.6-4.7-1.7-6.7-3c-2.1-1.5-3.9-3.3-5.1-5.4
		c-1.2-1.9-2-4-2.6-6.2c-0.8-3.8-1.1-7.7-1.1-11.6c-0.1-3.6-0.2-7.2-0.3-10.9c-0.2-7.4-0.4-14.8-0.6-22.5
		C203.8,273.8,202.9,239.9,201.9,199.7L201.9,199.7z"/>
	<path class="st0" d="M372.9,228.9v110.4c0,17.2,5.6,22.2,24.6,22.3h3.4c26.5,0,30-3,30-26.4c0-21.7-0.1-43.5,0-65.2
		c0.1-14.8,5.8-19.8,22.3-20c7.5-0.1,15,0.2,22.5-0.1c11.3-0.4,18-5.6,18-15.4c0-40.5-0.2-80.9-0.8-121.4
		c-0.2-11.3-6.4-16.7-19-16.8c-27.3-0.3-54.7-0.3-82,0c-13.3,0.2-18.9,6.4-19,20.1c-0.1,35.4-0.1,70.9-0.1,106.3L372.9,228.9
		L372.9,228.9z"/>
	<path class="st1" d="M477,258.2h-0.7c-0.2,0-0.4,0-0.6,0l-1.1,0l-2.2,0.1l-4.3,0.1l-8.3,0.1l-4,0.1c-1.3,0-2.7,0-3.8,0.1
		s-2.2,0.2-3.3,0.3c-0.9,0.1-1.9,0.3-2.8,0.5c-0.2,0-0.4,0.1-0.6,0.1l-0.5,0.2c-0.1,0.1-0.4,0.1-0.5,0.1c-0.1,0.1-0.2,0.1-0.4,0.2
		c-0.1,0.1-0.3,0.1-0.4,0.1c-0.1,0.1-0.1,0.1-0.2,0.2c-0.2,0.1-0.3,0.2-0.4,0.3l-0.1,0.1v0.1c0,0.1-0.1,0.1-0.1,0.1
		c-0.1,0.1-0.1,0.3-0.3,0.4s-0.2,0.4-0.3,0.6c-0.1,0.2-0.2,0.6-0.3,0.9c-0.4,1.7-0.7,3.4-0.7,5.1c-0.1,1.9,0,4.5,0,6.9
		c0.2,19.4,0.2,38.4,0.2,56.9v3.4c0,1.1,0,2.4,0,3.6c-0.1,2.4-0.2,4.9-0.5,7.5c-0.3,3-0.9,5.9-1.9,8.7c-0.3,0.8-0.7,1.6-1.1,2.5
		c-0.5,0.9-1,1.8-1.6,2.6c-1.3,1.8-2.9,3.4-4.7,4.7c-1.8,1.2-3.7,2.2-5.7,3c-1.7,0.6-3.5,1.1-5.2,1.5c-2.9,0.5-5.9,0.9-8.9,1
		c-2.7,0.1-5.3,0.2-7.8,0.2h-7.5c-1.3-0.1-2.6-0.1-4-0.2l-2.1-0.2c-0.7-0.1-1.4-0.2-2.1-0.3c-3.2-0.4-6.2-1.2-9.2-2.3
		c-0.8-0.4-1.6-0.7-2.4-1.1c-0.8-0.4-1.6-0.9-2.4-1.4c-1.6-1-3-2.3-4.2-3.7c-2.2-2.5-3.8-5.4-4.7-8.4l-0.3-1l-0.2-1l-0.4-1.9
		c-0.2-1.2-0.3-2.4-0.4-3.6s-0.1-2.3-0.1-3.4s0-2.1,0-3.2c0.1-3.9,0.2-7.6,0.3-11.3c1.9-59.3,5.1-98.8,8.9-98.8
		c3.7,0,7,39.6,8.9,98.8c0.1,3.7,0.2,7.5,0.3,11.3c0,0.9,0.1,1.7,0.1,2.6c0,0.9,0.2,1.6,0.2,2.5s0.3,1.5,0.4,2.3l0.3,1l0.1,0.5
		l0.2,0.4c0.2,0.8,0.7,1.6,1.3,2.3c0.5,0.5,1.2,0.9,1.9,1c1.4,0.5,2.8,0.7,4.3,0.9c0.5,0,0.9,0.1,1.4,0.1l1.5,0.1c1,0.1,2,0,3.1,0.1
		h3.4l3.5-0.1c2.3,0,4.5-0.1,6.7-0.3c1.9-0.1,3.8-0.4,5.7-0.7c0.6-0.1,1.2-0.3,1.8-0.5c0.2-0.1,0.5-0.2,0.7-0.4
		c0.1-0.1,0.1-0.2,0.2-0.3c0.1-0.1,0.1-0.2,0.2-0.4c0.1-0.2,0.2-0.4,0.3-0.7c0.5-1.5,0.8-3,0.9-4.6c0.2-1.9,0.3-4,0.3-6.1V332
		c0-18.5,0-37.6,0.2-57c0-2.5,0-4.7,0.2-7.7c0.2-3.2,0.7-6.3,1.7-9.3c0.3-0.9,0.6-1.7,1-2.6s0.9-1.8,1.5-2.7c0.6-0.9,1.3-1.8,2-2.6
		c0.4-0.4,0.8-0.9,1.2-1.2c0.2-0.2,0.4-0.4,0.6-0.6l0.7-0.6c0.9-0.7,1.9-1.4,2.9-2l1.5-0.9c0.5-0.3,1-0.4,1.5-0.6l1.5-0.6
		c0.5-0.2,1-0.3,1.5-0.4l1.5-0.4c0.5-0.1,1-0.2,1.4-0.3c1.8-0.4,3.5-0.6,5.3-0.8c1.6-0.1,3.3-0.2,4.9-0.2h4.4l4.2,0.1l8.2,0.2h7.6
		c1.7,0,3.4-0.3,5-0.8c1-0.3,1.9-0.9,2.6-1.6c0.7-0.9,1.2-2,1.3-3.2c0.1-0.4,0.1-0.8,0.1-1.1v-1.6c0-1.2,0-2.4,0.1-3.5
		c0.2-9.4,0.4-18.4,0.5-27.1c0.4-17.4,0.7-33.7,1-49.2c0.2-7.7,0.3-15.3,0.5-22.7c0.1-3.7,0.2-7.4,0.2-11l0.1-5.4v-2.5
		c0-0.4,0-0.8-0.1-1.1c0-0.4-0.1-0.7-0.1-1.1c-0.2-1.3-0.6-2.6-1.1-3.8c-0.5-1.1-1.3-2-2.2-2.7c-1.1-0.8-2.3-1.3-3.6-1.7
		c-1.5-0.4-3.1-0.7-4.7-0.9c-1.6-0.1-3.7-0.2-5.6-0.2l-5.9-0.2l-11.8-0.3c-15.7-0.4-31.4-0.8-47.6-0.9l-12.3-0.1c-1,0-1.9,0-2.9,0.1
		c-0.9,0.1-1.9,0.2-2.8,0.3c-1.8,0.3-3.5,0.8-5,1.7c-3,1.6-4.9,4.6-5.8,8.1c-0.5,1.8-0.8,3.6-0.9,5.4c-0.1,1.9-0.1,3.8-0.2,5.8
		c-0.7,31.7-1.3,66.8-1.9,108.7c-0.6-41.9-1.1-77-1.8-108.7c-0.1-3.9-0.3-8,0.7-12.1c0.2-1,0.5-2,0.9-3l0.7-1.5
		c0.2-0.5,0.6-1,0.8-1.4c1.2-1.9,2.9-3.6,4.9-4.8c2-1.2,4.3-2.1,6.6-2.5c1.1-0.2,2.2-0.4,3.4-0.5c1.1-0.1,2.3-0.2,3.3-0.2l12.3-0.4
		c16.3-0.5,32-0.8,47.7-1.1l11.8-0.2l5.9-0.1c2,0,3.9-0.1,6.1,0c2.3,0.1,4.6,0.4,6.9,0.9c2.5,0.6,4.9,1.6,6.9,3
		c2.2,1.5,3.9,3.3,5.2,5.5c1.2,2,2,4.1,2.4,6.2c0.1,0.5,0.2,1.1,0.3,1.6s0.2,1.1,0.2,1.6l0.1,1.6c0,0.5,0,0.9,0.1,1.4l0.2,5.4
		c0.1,3.6,0.3,7.3,0.4,11c0.2,7.4,0.5,15,0.8,22.7c0.5,15.5,1.1,31.8,1.7,49.2c0.3,8.7,0.6,17.8,0.9,27.2l0.1,3.5v1.9
		c0,0.8,0,1.6-0.1,2.4c-0.3,3.7-1.6,7.2-3.9,10.4c-2.5,3.3-6,5.9-10,7.6C484.8,257.1,481,258,477,258.2L477,258.2z"/>
	<path class="st0" d="M814.8,163.1c0-22.8,0.1-45.5,0-68.3c-0.1-14.1-5.9-19.3-21.8-19.5c-25.9-0.2-51.7-0.2-77.6,0
		c-15.2,0.1-21.4,5.4-21.4,18.8c-0.2,45.9-0.2,91.7,0,137.6c0,12.9,6.2,18.2,20.7,18.3c26.2,0.1,52.5,0.1,78.7,0
		c15.6-0.1,21.4-5.4,21.5-19.7C814.9,207.9,814.8,185.5,814.8,163.1L814.8,163.1z"/>
	<path class="st1" d="M684.6,134.3c-0.2-7.5-0.4-15-0.6-22.5c-0.1-3.7-0.1-7.5-0.2-11.2l-0.1-5.6v-3.2c0-1.1,0.2-2.3,0.3-3.5
		l0.3-1.9l0.2-0.9l0.3-1c0.2-0.7,0.3-1.3,0.6-1.9c0.2-0.7,0.5-1.3,0.8-2c2.6-5.9,8-10.5,14.6-12.6c2.7-0.9,5.5-1.4,8.3-1.7
		c1.3-0.1,2.6-0.3,3.8-0.3s2.5-0.1,3.4-0.1h18c15.8,0,31.1,0.2,45.7,0.4l10.7,0.2h2.7c1,0.1,2,0.1,3.1,0.2s2.1,0.2,3.2,0.3
		c1.1,0.1,2.2,0.3,3.3,0.6c2.4,0.5,4.7,1.2,6.9,2.2c2.5,1.1,4.7,2.6,6.6,4.3c0.9,0.9,1.8,1.9,2.5,2.9c0.3,0.5,0.7,1,1,1.5l0.8,1.5
		l0.4,0.8l0.3,0.8l0.5,1.5c0.3,1,0.5,1.9,0.7,2.8s0.3,1.8,0.4,2.7s0.1,1.7,0.2,2.5c0.1,0.8,0,1.6,0,2.4v1.2l0,1
		c-0.1,2.7-0.3,5.3-0.4,7.9c-0.3,5.2-0.6,10.1-0.9,14.7c-0.6,9.2-1.3,17.2-2.1,23.8c-1.5,13.2-3.3,20.8-5.1,20.8
		c-1.9,0-3.6-7.6-5.2-20.8c-0.8-6.6-1.5-14.6-2.1-23.8c-0.3-4.6-0.6-9.4-0.9-14.6c-0.1-2.6-0.3-5.2-0.4-7.9l0-1l-0.1-0.9
		c-0.1-0.6-0.1-1.2-0.2-1.7s-0.2-1.1-0.2-1.6s-0.2-1-0.4-1.5s-0.3-0.9-0.5-1.3c-0.1-0.2-0.2-0.3-0.3-0.5l-0.1-0.3l-0.2-0.2l-0.3-0.4
		c-0.1-0.1-0.2-0.2-0.3-0.3s-0.4-0.3-0.5-0.5c-0.5-0.3-1-0.6-1.5-0.7c-0.9-0.3-1.8-0.5-2.7-0.6c-0.6-0.1-1.2-0.1-1.8-0.2l-2-0.1
		h-4.7l-10.7,0.2c-14.5,0.2-29.7,0.4-45.5,0.5h-20.6c-0.8,0-1.5,0.1-2.3,0.1c-1.2,0.1-2.4,0.3-3.6,0.7c-0.6,0.2-1.2,0.4-1.7,0.8
		c-0.4,0.4-0.7,0.8-1,1.3c-0.4,1-0.7,2-0.9,3c0,0.7-0.2,1.3-0.2,2s-0.1,1.4-0.1,2.4l-0.1,5.6c-0.1,3.7-0.2,7.4-0.2,11.2
		c-0.2,7.5-0.4,15-0.6,22.5c-1,30.9-1.9,57-2.8,80.6c-0.2,5.9-0.4,11.6-0.6,17.2c-0.1,2.3,0.2,4.5,0.8,6.7c0.5,1.7,1.6,3.2,3.1,4.3
		c1.9,1.1,4,1.9,6.3,2.1c0.6,0.1,1.3,0.2,1.9,0.2c0.6,0.1,1.3,0.1,2,0.1c0.7,0.1,1.5,0.1,2.2,0.1l2.2,0.1l18,0.5l36.4,1l18.9,0.5
		c1.6,0,3.2,0.1,4.7,0c0.8-0.1,1.5-0.1,2.3-0.1s1.5-0.1,2.3-0.3c2.9-0.4,5.7-1.6,7.8-3.4l0.7-0.7c0.2-0.3,0.4-0.6,0.6-0.9l0.3-0.4
		c0.1-0.1,0.2-0.3,0.3-0.5l0.5-0.9c0.3-0.6,0.6-1.3,0.8-2c0.2-0.7,0.5-1.4,0.6-2.1c0.6-3.1,0.8-6.1,0.8-9.2c0.2-6.4,0.3-13,0.5-19.9
		c0.3-13.7,0.6-28.4,0.9-44.4c0.3,16,0.6,30.7,0.9,44.4c0.2,6.9,0.3,13.5,0.5,19.9c0.2,3.2,0.1,6.5-0.3,9.7
		c-0.1,0.8-0.3,1.6-0.5,2.4s-0.5,1.6-0.8,2.4l-0.6,1.2c-0.1,0.2-0.2,0.4-0.3,0.6l-0.4,0.6c-0.2,0.4-0.5,0.7-0.8,1.1l-1,1
		c-0.3,0.3-0.6,0.6-1,0.9c-0.4,0.3-0.7,0.6-1.1,0.9c-0.8,0.5-1.6,1-2.4,1.4c-0.4,0.2-0.8,0.4-1.2,0.6l-1.3,0.4
		c-0.8,0.3-1.7,0.5-2.6,0.7c-3.3,0.6-6.7,1-10.2,1l-19,0.5l-36.4,1l-18,0.5l-2.3,0.1c-0.8,0-1.5,0.1-2.3,0c-0.9,0-1.7,0-2.5,0
		s-1.7-0.1-2.6-0.1c-3.8-0.3-7.5-1.4-10.8-3.1c-0.9-0.5-1.8-1.1-2.6-1.7c-0.4-0.3-0.8-0.7-1.1-1s-0.7-0.7-1-1.1
		c-0.7-0.8-1.2-1.6-1.7-2.4c-0.2-0.4-0.5-0.9-0.7-1.2l-0.6-1.2c-1.3-3.2-2-6.5-2.1-9.9c-0.2-5.7-0.4-11.5-0.7-17.4
		C686.5,191.3,685.6,165.3,684.6,134.3L684.6,134.3z"/>
	<path class="st0" d="M533.7,169c0,20.7-0.1,41.4,0,62.2c0.1,13.7,5.8,18.8,21,18.9c26.2,0.1,52.4,0.1,78.6,0
		c15.1-0.1,21-5.1,21-18.9c-0.1-42.8-0.5-85.5-1-128.3c-0.1-11.1-6.3-16.7-18.8-16.9c-27.3-0.3-54.6-0.3-81.9,0
		c-12.8,0.1-18.6,5.8-18.7,17.9C533.5,125.6,533.7,147.3,533.7,169L533.7,169z"/>
	<path class="st1" d="M663.2,194.2c0.3,7.2,0.6,14.4,0.8,21.6c0.1,3.6,0.2,7.2,0.3,10.8l0.1,2.7c0,0.9,0.1,1.7,0,2.8s0,2.1-0.1,3.2
		c0,0.6-0.1,1.1-0.1,1.7l-0.3,1.7l-0.1,0.9l-0.2,0.9l-0.5,1.9c-0.4,1.3-1,2.6-1.7,3.9c-0.7,1.4-1.6,2.7-2.6,3.9
		c-0.6,0.6-1.2,1.2-1.8,1.8s-1.3,1.1-2,1.6c-2.6,1.8-5.5,3.2-8.7,4.1c-2.6,0.7-5.2,1.2-7.9,1.4l-1.8,0.1l-1.8,0.1h-20.4
		c-15.2,0-29.8-0.2-43.8-0.5l-10.3-0.2l-5-0.1H554l-1.5-0.1c-1,0-2-0.1-3-0.2s-2-0.2-3.1-0.4c-1.1-0.2-2.2-0.4-3.2-0.7l-0.8-0.2
		l-0.8-0.3l-1.7-0.6c-0.6-0.2-1.2-0.4-1.7-0.7c-0.6-0.3-1.1-0.5-1.7-0.9c-1.1-0.6-2.2-1.3-3.2-2.1c-0.5-0.4-1-0.8-1.4-1.2
		c-0.4-0.4-0.9-0.9-1.3-1.4c-0.4-0.4-0.8-0.9-1.1-1.4c-0.3-0.5-0.7-1-1-1.5l-0.8-1.5c-0.2-0.5-0.5-0.9-0.6-1.4
		c-1.2-3.3-1.8-6.8-1.8-10.2v-4.2c0.1-1.3,0.1-2.5,0.2-3.8c0.3-4.7,0.5-9.4,0.9-14.1c0.6-8.8,1.3-16.5,2.1-22.9
		c1.5-12.7,3.3-19.9,5.1-19.9s3.6,7.2,5.2,19.9c0.8,6.3,1.5,14,2.1,22.8c0.3,4.4,0.6,9.1,0.9,14c0.1,1.2,0.1,2.5,0.2,3.8v0.9
		c0,0.3,0,0.6,0.1,0.9c0,0.5,0.1,1.1,0.2,1.6c0.2,1.9,0.7,3.7,1.4,5.4c0.1,0.1,0.2,0.3,0.2,0.4s0.2,0.3,0.2,0.4s0.2,0.2,0.3,0.3
		s0.1,0.2,0.2,0.2c0.1,0.1,0.2,0.1,0.2,0.2c0.1,0.1,0.2,0.1,0.3,0.2c0.2,0.1,0.4,0.2,0.6,0.3c1.7,0.6,3.6,0.9,5.4,0.9
		c0.6,0,1.2,0.1,1.9,0.1h2.2l5-0.1l10.3-0.2c13.9-0.2,28.5-0.4,43.7-0.4h21l1.1-0.1c0.8,0,1.3-0.1,2-0.2c0.3,0,0.6-0.1,0.8-0.2
		c0.9-0.1,1.8-0.4,2.5-0.9c0.4-0.2,0.7-0.6,0.8-0.9c0.2-0.3,0.3-0.7,0.5-1c0.1-0.2,0.1-0.5,0.2-0.7l0.1-0.4l0.1-0.4l0.2-0.9l0.1-1
		c0.1-0.6,0.1-1.4,0.1-2.1s0-1.6,0.1-2.5v-2.7c0-3.6,0.1-7.1,0.1-10.7c0.1-7.2,0.3-14.4,0.4-21.6c0.8-29.7,1.5-54.6,2.2-77.3
		c0.1-2.8,0.2-5.6,0.3-8.4c0-1.4,0.1-2.8,0.1-4.1v-3.6c0-1.9-0.6-3.8-1.5-5.6c-0.9-1.5-2.3-2.6-4-3.3c-2.1-0.8-4.4-1.3-6.7-1.4
		c-0.3,0-0.6-0.1-1-0.1h-1.1l-2.2-0.1l-4.1-0.2l-17.3-0.5l-34.9-1l-18.2-0.5l-2.3-0.1h-2.3c-0.7,0-1.5,0-2.2,0.1l-1.1,0.1l-1.1,0.2
		c-1.4,0.2-2.8,0.6-4.1,1.1c-1.3,0.5-2.4,1.2-3.4,2.1c-2,2-3.3,4.4-3.8,7c-0.6,2.9-0.8,5.8-0.8,8.8c-0.2,6.2-0.3,12.5-0.5,19.1
		c-0.3,13.2-0.6,27.3-1,42.6c-0.3-15.4-0.6-29.5-0.8-42.7c-0.2-6.6-0.3-12.9-0.5-19.1c-0.2-3.1-0.1-6.2,0.4-9.3
		c0.5-3.2,2-6.3,4.4-8.8c1.2-1.2,2.7-2.2,4.3-3c1.6-0.7,3.2-1.3,5-1.6l1.3-0.2l1.3-0.2c0.8-0.1,1.7-0.2,2.5-0.2
		c0.8-0.1,1.6-0.1,2.4-0.1l2.3-0.1l18.2-0.5l35-1l17.3-0.5l4.3-0.1l2.2-0.1h2.3c3.6,0,7.1,0.5,10.4,1.7c3.8,1.3,7.1,3.7,9.3,6.8
		c2,3,3.3,6.3,3.7,9.7c0.2,0.9,0.2,1.6,0.2,2.4v2.1c0.1,1.4,0.1,2.8,0.2,4.1c0.1,2.8,0.2,5.6,0.4,8.4
		C660.9,139.5,662,164.5,663.2,194.2L663.2,194.2z"/>
</g>
</svg>
